P2
# Created by GIMP version 2.10.24 PNM plug-in
20 10
255
255
255
255
255
255
255
255
255
255
255
255
255
255
255
255
255
255
255
255
255
255
255
255
255
255
255
255
255
255
255
255
255
255
255
255
255
255
255
0
255
255
255
255
255
255
255
255
255
255
255
255
255
255
255
255
255
255
255
0
255
255
255
255
255
0
0
0
0
0
0
0
0
255
255
255
0
0
0
0
255
255
255
255
255
0
0
255
255
255
255
255
255
255
255
255
0
0
0
0
255
255
255
255
255
0
0
255
255
255
255
255
255
255
255
255
255
255
255
255
255
255
255
255
255
0
0
255
255
0
255
255
255
255
255
255
255
255
255
255
255
255
255
255
255
0
0
255
255
0
255
255
255
255
255
255
255
255
255
255
255
255
255
255
255
0
0
255
255
0
255
255
255
255
255
255
255
255
255
255
255
255
255
255
255
0
0
255
255
0
255
255
255
255
255
255
255
255
255
255
255
